<?xml version="1.0" encoding="iso-8859-1"?>
<!-- Generator: Adobe Illustrator 19.0.0, SVG Export Plug-In . SVG Version: 6.00 Build 0)  -->
<svg version="1.1" id="Capa_1" xmlns="http://www.w3.org/2000/svg" xmlns:xlink="http://www.w3.org/1999/xlink" x="0px" y="0px"
	 viewBox="0 0 512 512" style="enable-background:new 0 0 512 512;" xml:space="preserve">
<path style="fill:#595A66;" d="M430.545,403.782L254.836,512L79.127,403.782c-13.964-8.145-22.109-23.273-22.109-39.564V52.364
	c0-10.473,6.982-19.782,17.455-22.109L115.2,18.618C161.745,5.818,208.291,0,257.164,0l0,0c50.036,0,98.909,6.982,146.618,20.945
	l33.745,9.309c10.473,2.327,17.455,11.636,17.455,22.109v311.855C452.655,380.509,444.509,394.473,430.545,403.782z"/>
<path style="fill:#D3E2EB;" d="M103.564,357.236V79.127c0-5.818,3.491-9.309,8.145-11.636L126.836,64
	C168.727,52.364,211.782,46.545,256,46.545c45.382,0,89.6,5.818,133.818,18.618l8.145,2.327c4.655,1.164,8.145,5.818,8.145,11.636
	v278.109c0,3.491-2.327,8.145-5.818,10.473l-139.636,86.109c-3.491,2.327-8.145,2.327-12.8,0l-139.636-86.109
	C105.891,365.382,103.564,361.891,103.564,357.236z"/>
<path style="fill:#B0C4D8;" d="M126.836,101.236c0-5.818,3.491-9.309,8.145-11.636l15.127-3.491
	C192,74.473,235.055,68.655,279.273,68.655c43.055,0,86.109,5.818,126.836,17.455v-6.982c0-4.655-3.491-9.309-8.145-11.636
	l-8.145-2.327C345.6,52.364,301.382,46.545,256,46.545c-44.218,0-87.273,5.818-129.164,17.455l-15.127,3.491
	c-4.655,2.327-8.145,6.982-8.145,11.636v278.109c0,3.491,2.327,8.145,5.818,10.473l17.455,10.473V101.236z"/>
<path style="fill:#FFFFFF;" d="M406.109,79.127c0-2.327-1.164-4.655-2.327-6.982l-294.4,294.4l0,0l57.018,34.909l239.709-238.545
	V79.127z"/>
<g>
	<path style="fill:#D5E3EF;" d="M109.382,367.709l17.455,10.473v-29.091L109.382,367.709L109.382,367.709z"/>
	<path style="fill:#D5E3EF;" d="M404.945,75.636c0-1.164-1.164-2.327-1.164-3.491l0,0l-10.473,10.473
		c4.655,1.164,8.145,2.327,12.8,3.491v-6.982C406.109,77.964,406.109,76.8,404.945,75.636z"/>
</g>
<path style="fill:#FFFFFF;" d="M406.109,357.236V197.818l-217.6,217.6l60.509,37.236c3.491,2.327,8.145,2.327,12.8,0l139.636-86.109
	C403.782,365.382,406.109,361.891,406.109,357.236z"/>
<path style="fill:#494A52;" d="M452.655,50.036c-3.491-12.8-23.273-8.145-23.273,4.655v297.891c0,16.291-8.145,31.418-22.109,39.564
	l-130.327,80.291c-13.964,8.145-22.109,23.273-22.109,39.564l0,0l175.709-108.218c13.964-8.145,22.109-23.273,22.109-39.564V52.364
	C452.655,51.2,452.655,51.2,452.655,50.036z"/>
<g>
	<path style="fill:#6F707E;" d="M80.291,75.636v93.091c0,3.491-2.327,5.818-5.818,5.818l0,0c-3.491,0-5.818-2.327-5.818-5.818
		V75.636c0-3.491,2.327-5.818,5.818-5.818l0,0C77.964,69.818,80.291,72.145,80.291,75.636z"/>
	<path style="fill:#6F707E;" d="M80.291,215.273v23.273c0,3.491-2.327,5.818-5.818,5.818l0,0c-3.491,0-5.818-2.327-5.818-5.818
		v-23.273c0-3.491,2.327-5.818,5.818-5.818l0,0C77.964,209.455,80.291,211.782,80.291,215.273z"/>
	<path style="fill:#6F707E;" d="M68.655,192L68.655,192c0-3.491,2.327-5.818,5.818-5.818l0,0c3.491,0,5.818,2.327,5.818,5.818l0,0
		c0,3.491-2.327,5.818-5.818,5.818l0,0C70.982,197.818,68.655,195.491,68.655,192z"/>
</g>
<path id="SVGCleanerId_0" style="fill:#6F707E;" d="M289.745,244.364c-6.982,0-11.636-4.655-11.636-11.636v-58.182
	c0-12.8-10.473-23.273-23.273-23.273c-12.8,0-23.273,10.473-23.273,23.273v58.182c0,6.982-4.655,11.636-11.636,11.636
	s-11.636-4.655-11.636-11.636v-58.182c0-25.6,20.945-46.545,46.545-46.545s46.545,20.945,46.545,46.545v58.182
	C301.382,239.709,296.727,244.364,289.745,244.364z"/>
<g>
	<path id="SVGCleanerId_0_1_" style="fill:#6F707E;" d="M289.745,244.364c-6.982,0-11.636-4.655-11.636-11.636v-58.182
		c0-12.8-10.473-23.273-23.273-23.273c-12.8,0-23.273,10.473-23.273,23.273v58.182c0,6.982-4.655,11.636-11.636,11.636
		s-11.636-4.655-11.636-11.636v-58.182c0-25.6,20.945-46.545,46.545-46.545s46.545,20.945,46.545,46.545v58.182
		C301.382,239.709,296.727,244.364,289.745,244.364z"/>
</g>
<g>
	<path style="fill:#595A66;" d="M243.2,151.273c-12.8,0-23.273,10.473-23.273,23.273v58.182c0,4.655-2.327,8.145-5.818,9.309
		c1.164,1.164,3.491,2.327,5.818,2.327c6.982,0,11.636-4.655,11.636-11.636v-58.182c0-10.473,6.982-19.782,17.455-22.109
		C246.691,151.273,245.527,151.273,243.2,151.273z"/>
	<path style="fill:#595A66;" d="M254.836,128c-2.327,0-3.491,0-5.818,1.164c23.273,2.327,40.727,22.109,40.727,45.382v58.182
		c0,4.655-2.327,8.145-5.818,9.309c1.164,1.164,3.491,2.327,5.818,2.327c6.982,0,11.636-4.655,11.636-11.636v-58.182
		C301.382,148.945,280.436,128,254.836,128z"/>
	<path style="fill:#595A66;" d="M205.964,221.091h107.055c6.982,0,11.636,4.655,11.636,11.636v81.455
		c0,6.982-4.655,11.636-11.636,11.636H196.655c-6.982,0-11.636-4.655-11.636-11.636v-81.455c0-6.982,4.655-11.636,11.636-11.636
		H205.964"/>
</g>
<path style="fill:#35363E;" d="M254.836,290.909c-6.982,0-11.636-4.655-11.636-11.636V256c0-6.982,4.655-11.636,11.636-11.636
	c6.982,0,11.636,4.655,11.636,11.636v23.273C266.473,286.255,261.818,290.909,254.836,290.909z"/>
<path style="fill:#494A52;" d="M313.018,221.091v93.091h-128c0,6.982,4.655,11.636,11.636,11.636h116.364
	c6.982,0,11.636-4.655,11.636-11.636v-81.455C324.655,225.745,320,221.091,313.018,221.091z"/>
<g>
	<path style="fill:#6F707E;" d="M208.291,238.545v23.273c0,3.491-2.327,5.818-5.818,5.818l0,0c-3.491,0-5.818-2.327-5.818-5.818
		v-23.273c0-3.491,2.327-5.818,5.818-5.818l0,0C205.964,232.727,208.291,235.055,208.291,238.545z"/>
	<path style="fill:#6F707E;" d="M196.655,285.091L196.655,285.091c0-3.491,2.327-5.818,5.818-5.818l0,0
		c3.491,0,5.818,2.327,5.818,5.818l0,0c0,3.491-2.327,5.818-5.818,5.818l0,0C198.982,290.909,196.655,288.582,196.655,285.091z"/>
</g>
<g>
</g>
<g>
</g>
<g>
</g>
<g>
</g>
<g>
</g>
<g>
</g>
<g>
</g>
<g>
</g>
<g>
</g>
<g>
</g>
<g>
</g>
<g>
</g>
<g>
</g>
<g>
</g>
<g>
</g>
</svg>
